<svg width="297" height="150" viewBox="0 0 297 150" fill="none" xmlns="http://www.w3.org/2000/svg">
  <path
    d="M67.9155 36.1786C40.8849 36.8517 13.8503 79.7028 13.8503 79.7028C13.8503 79.7028 2.64765 86.8178 1.2351 94.2109C-1.08262 106.341 14.2788 108.38 23.4619 116.577C39.4361 130.837 46.848 152.122 67.9155 148.616C85.2637 145.729 83.2694 122.736 99.7538 116.577C121.944 108.287 135 132.561 158.625 131.086C177.51 129.906 186.017 115.087 204.881 116.577C219.994 117.772 225.769 130.678 240.924 131.086C266.421 131.771 289.501 119.277 294.989 94.2109C301.108 66.2667 278.595 31.539 250.536 36.1786C234.736 38.7911 234.454 59.3127 218.697 62.1723C189.515 67.4682 202.55 4.06979 173.042 1.11749C140.991 -2.08929 149.375 61.4072 117.175 62.1723C95.4594 62.6882 89.6303 35.638 67.9155 36.1786Z"
    fill="#FFFDF6" stroke="#FFFDF6" />
</svg>