<svg width="1440" height="409" viewBox="0 0 1440 409" fill="none" xmlns="http://www.w3.org/2000/svg">
  <path fill-rule="evenodd" clip-rule="evenodd"
    d="M100.973 246.125C48.2912 260.615 -13 331.931 -13 331.931L-4.67615 399.203L-13 450H1630V331.931C1630 331.931 1585.82 219.353 1551.88 188.463C1517.95 157.573 1424.46 4.69036 1345.07 1.06231C1265.67 -2.56574 1118.4 153.454 1118.4 153.454C1118.4 153.454 987.783 228.277 955.128 295.549C922.473 362.821 811.67 355.879 722.7 331.931C652.697 313.088 636.138 242.475 565.187 228.277C461.471 207.522 418.368 335.431 312.911 331.931C224.481 328.996 186.669 222.553 100.973 246.125Z"
    fill="#2A2A33" stroke="#2A2A33" />
</svg>